<svg width="289" height="597" viewBox="0 0 289 597" fill="none" xmlns="http://www.w3.org/2000/svg">
<path d="M146.793 0H0V284.41L289 596.345L288.998 266.061H216.714C259.87 241.646 288.998 195.327 288.998 142.205C288.998 63.6675 225.33 0 146.793 0Z" fill="#D9F400"/>
<path fill-rule="evenodd" clip-rule="evenodd" d="M0 0H146.793C225.33 0 288.998 63.6675 288.998 142.205C288.998 195.327 259.87 241.646 216.714 266.061H288.998L289 596.345L0 284.41V0ZM18.3491 18.3491H146.793C215.196 18.3491 270.649 73.8014 270.649 142.205C270.649 210.609 215.196 266.061 146.793 266.061H18.3491V18.3491ZM25.0138 284.41L270.651 549.54L270.649 284.41H25.0138Z" fill="#222222"/>
</svg>
